<?xml version="1.0" encoding="UTF-8" standalone="no"?>
<svg width="320px" height="20px" viewBox="0 0 320 20" version="1.1" xmlns="http://www.w3.org/2000/svg" xmlns:xlink="http://www.w3.org/1999/xlink" xmlns:sketch="http://www.bohemiancoding.com/sketch/ns">
    <!-- Generator: Sketch 3.3.3 (12081) - http://www.bohemiancoding.com/sketch -->
    <title>Slice 1</title>
    <desc>Created with Sketch.</desc>
    <defs></defs>
    <g id="Page-1" stroke="none" stroke-width="1" fill="none" fill-rule="evenodd" sketch:type="MSPage">
        <g id="Status-Bar" sketch:type="MSLayerGroup" fill="#FFFFFF">
            <path d="M9.25,13 C10.7687831,13 12,11.7687831 12,10.25 C12,8.73121694 10.7687831,7.5 9.25,7.5 C7.73121694,7.5 6.5,8.73121694 6.5,10.25 C6.5,11.7687831 7.73121694,13 9.25,13 Z M16.25,13 C17.7687831,13 19,11.7687831 19,10.25 C19,8.73121694 17.7687831,7.5 16.25,7.5 C14.7312169,7.5 13.5,8.73121694 13.5,10.25 C13.5,11.7687831 14.7312169,13 16.25,13 Z M23.25,13 C24.7687831,13 26,11.7687831 26,10.25 C26,8.73121694 24.7687831,7.5 23.25,7.5 C21.7312169,7.5 20.5,8.73121694 20.5,10.25 C20.5,11.7687831 21.7312169,13 23.25,13 Z M30.25,13 C31.7687831,13 33,11.7687831 33,10.25 C33,8.73121694 31.7687831,7.5 30.25,7.5 C28.7312169,7.5 27.5,8.73121694 27.5,10.25 C27.5,11.7687831 28.7312169,13 30.25,13 Z M37.25,13 C38.7687831,13 40,11.7687831 40,10.25 C40,8.73121694 38.7687831,7.5 37.25,7.5 C35.7312169,7.5 34.5,8.73121694 34.5,10.25 C34.5,11.7687831 35.7312169,13 37.25,13 Z M37.25,12 C38.2164983,12 39,11.2164983 39,10.25 C39,9.28350169 38.2164983,8.5 37.25,8.5 C36.2835017,8.5 35.5,9.28350169 35.5,10.25 C35.5,11.2164983 36.2835017,12 37.25,12 Z" id="Signal" sketch:type="MSShapeGroup"></path>
            <path d="M57.3257978,8.1677138 C55.6552852,6.51822615 53.3599886,5.5 50.8268725,5.5 C48.3796402,5.5 46.1543745,6.45035186 44.5,8.00213098 L45.5466463,9.07706503 C46.9305823,7.78835912 48.7866618,7 50.8268725,7 C52.9387672,7 54.8533644,7.84473138 56.251214,9.21474415 L57.3257978,8.1677138 L57.3257978,8.1677138 Z M55.1765155,10.2618862 C54.051427,9.17129679 52.5175446,8.5 50.8268725,8.5 C49.1936843,8.5 47.7068053,9.12642373 46.5933986,10.1521079 L47.7395363,11.3292224 C48.5142048,10.5106604 49.6109031,10 50.8268725,10 C52.0847407,10 53.2149767,10.5464585 53.9931319,11.4149267 L55.1765155,10.2618862 L55.1765155,10.2618862 Z M52.9173189,12.4631548 C52.4129411,11.8736366 51.6635405,11.5 50.8268725,11.5 C50.0179022,11.5 49.2905172,11.8493077 48.787318,12.4053225 L50.8268725,14.5 L52.9173189,12.4631548 L52.9173189,12.4631548 Z" id="Wifi" sketch:type="MSShapeGroup"></path>
            <text id="Time" sketch:type="MSTextLayer" font-family="Helvetica Neue" font-size="12" font-weight="normal" sketch:alignment="middle" letter-spacing="0.400000006">
                <tspan x="143.988" y="14.5" fill="#000000">09:42</tspan>
            </text>
            <path d="M290.993713,5.5 C290.168758,5.5 289.5,6.16802155 289.5,7.00530324 L289.5,13.4946968 C289.5,14.3260528 290.17338,15 290.993713,15 L310.506287,15 C311.331242,15 312,14.3319784 312,13.4946968 L312,7.00530324 C312,6.17394722 311.32662,5.5 310.506287,5.5 L290.993713,5.5 Z M291.008152,6 C290.451365,6 290,6.45699692 290,7.00844055 L290,13.4915594 C290,14.0485058 290.449058,14.5 291.008152,14.5 L310.491848,14.5 C311.048635,14.5 311.5,14.0430031 311.5,13.4915594 L311.5,7.00844055 C311.5,6.45149422 311.050942,6 310.491848,6 L291.008152,6 Z M312.5,8.5 L312.5,12 L313.25,12 C313.664214,12 314,11.6644053 314,11.25774 L314,9.24225998 C314,8.83232111 313.667101,8.5 313.25,8.5 L312.5,8.5 Z M291.006744,6.5 C290.726877,6.5 290.5,6.71637201 290.5,6.99209595 L290.5,13.5079041 C290.5,13.7796811 290.730225,14 291.006744,14 L310.493256,14 C310.773123,14 311,13.783628 311,13.5079041 L311,6.99209595 C311,6.72031886 310.769775,6.5 310.493256,6.5 L291.006744,6.5 Z" id="Battery" sketch:type="MSShapeGroup"></path>
        </g>
    </g>
</svg>